<svg id="Smart_control" height="512" viewBox="0 0 64 64" width="512" xmlns="http://www.w3.org/2000/svg" data-name="Smart control"><path d="m43.586 17.586a2 2 0 1 0 2.828 0 2 2 0 0 0 -2.828 0z"/><path d="m49.243 14.757a6.007 6.007 0 0 0 -8.486 0l1.414 1.414a4.007 4.007 0 0 1 5.658 0z"/><path d="m52.071 11.929a10 10 0 0 0 -14.142 0l1.414 1.414a8 8 0 0 1 11.314 0z"/><path d="m53.485 10.515 1.415-1.415a14.014 14.014 0 0 0 -19.8 0l1.414 1.414a12.013 12.013 0 0 1 16.971.001z"/><path d="m29 58h3a1 1 0 0 0 1-1v-5h-5v5a1 1 0 0 0 1 1z"/><path d="m59 39h-29v2h30v-1a1 1 0 0 0 -1-1z"/><path d="m55 43h5v2h-5z"/><path d="m54 58h3a1 1 0 0 0 1-1v-5h-5v5a1 1 0 0 0 1 1z"/><path d="m33 43h20v2h-20z"/><path d="m26 47h34v3h-34z"/><path d="m28 44v-31a1 1 0 0 0 -1-1h-18a1 1 0 0 0 -1 1v16.59l1.15 1.15.85-.51v-15.23a1 1 0 0 1 1-1h14a1 1 0 0 1 1 1v25a1 1 0 0 1 -1 1h-9.04a5.812 5.812 0 0 1 -.97 2.81l-.71 1.07c-.02.04-.03.08-.05.12h12.77a1 1 0 0 0 1-1z"/><path d="m14.26 35.85a5.871 5.871 0 0 1 1.64 3.15h8.1v-23h-12v13.03l.27-.16a2.812 2.812 0 0 1 3.86 3.86zm-.26-11.85a4 4 0 1 1 4 4 4 4 0 0 1 -4-4z"/><path d="m12.29 36.71a1.014 1.014 0 0 1 -.15-1.22l2.28-3.79a.82.82 0 0 0 -1.12-1.12l-3.12 1.88a1.986 1.986 0 0 1 -2.44-.31l-1.15-1.15a1.983 1.983 0 0 1 -.59-1.41v-6.4l-1.93 4.82a.986.986 0 0 0 -.07.38v10.28a3.018 3.018 0 0 0 .6 1.8l.66.88a7 7 0 0 1 1.3 5.35l-1.45 13.3h8.76l-1.72-14.08a2.93 2.93 0 0 1 .47-2.15l.71-1.06a3.993 3.993 0 0 0 .67-2.22v-.42a4 4 0 0 0 -1.17-2.83z"/><path d="m31 43h-1v1a3 3 0 0 1 -.18 1h1.18z"/><path d="m34.05 34.68a1.014 1.014 0 0 1 .95-.68h7v2h-6.28l-.33 1h9.89l.77-2.32a1.014 1.014 0 0 1 .95-.68h7v2h-6.28l-.33 1h9.61v-6a3.009 3.009 0 0 0 -3-3h-22a2.963 2.963 0 0 0 -2 .79v8.21h3.28z"/><circle cx="18" cy="24" r="2"/></svg>