<svg id="Smart_control" height="512" viewBox="0 0 64 64" width="512" xmlns="http://www.w3.org/2000/svg" data-name="Smart control"><path d="m46.414 21.414a2 2 0 1 0 -1.414.586 2 2 0 0 0 1.414-.586z"/><path d="m45 14a5.956 5.956 0 0 0 -4.242 1.758l1.414 1.414a4.093 4.093 0 0 1 5.656 0l1.414-1.414a5.956 5.956 0 0 0 -4.242-1.758z"/><path d="m52.071 12.929a10.011 10.011 0 0 0 -14.142 0l1.414 1.414a8.01 8.01 0 0 1 11.314 0z"/><path d="m53.485 11.515 1.415-1.415a14 14 0 0 0 -19.8 0l1.414 1.414a12.014 12.014 0 0 1 16.971.001z"/><path d="m49.58 27a4.941 4.941 0 0 1 .42 2v1h10v-3z"/><path d="m49 51a1 1 0 0 1 -1 1h-6a1 1 0 0 1 -1-1v-4h-4v13h16v-13h-4z"/><path d="m43 47h4v3h-4z"/><path d="m49.58 40h7.42v-2h-7a4.941 4.941 0 0 1 -.42 2z"/><path d="m55 47.15 2-2.5v-2.65h-2z"/><path d="m45 43a4.939 4.939 0 0 1 -2.97-1h-5.03v3h16v-3h-5.03a4.939 4.939 0 0 1 -2.97 1z"/><path d="m40 38h-7v2h7.42a4.941 4.941 0 0 1 -.42-2z"/><path d="m12.29 34.71a1.014 1.014 0 0 1 -.15-1.22l2.28-3.79a.82.82 0 0 0 -1.12-1.12l-3.12 1.88a2.012 2.012 0 0 1 -2.44-.3l-1.15-1.16a1.983 1.983 0 0 1 -.59-1.41v-6.4l-1.93 4.82a.971.971 0 0 0 -.07.37v10.29a3.018 3.018 0 0 0 .6 1.8l.66.88a7 7 0 0 1 1.3 5.35l-1.46 15.3h8.79l-1.74-16.1a2.9 2.9 0 0 1 .47-2.13l.71-1.06a3.993 3.993 0 0 0 .67-2.22v-.42a4 4 0 0 0 -1.17-2.83z"/><circle cx="18" cy="19" r="2"/><path d="m24 11h-12v16.03l.27-.16a2.812 2.812 0 0 1 3.86 3.86l-1.87 3.11c.05.05.09.11.14.16h9.6zm-6 12a4 4 0 1 1 4-4 4 4 0 0 1 -4 4z"/><path d="m33 44.65 2 2.5v-5.15h-2z"/><path d="m27 7h-18a1 1 0 0 0 -1 1v19.59l1.15 1.15.85-.51v-18.23a1 1 0 0 1 1-1h14a1 1 0 0 1 1 1v25a1 1 0 0 1 -1 1h-9.37a6.018 6.018 0 0 1 .37 2.07v.42a5.915 5.915 0 0 1 -.21 1.51h11.21a1 1 0 0 0 1-1v-31a1 1 0 0 0 -1-1z"/><path d="m42 29v9a3 3 0 0 0 6 0v-9a3 3 0 0 0 -6 0zm2-1h2v2h-2zm0 9h2v2h-2z"/></svg>